<svg xmlns="http://www.w3.org/2000/svg" width="6250" height="6250" viewBox="0 0 6250 6250"><path fill="currentColor" fill-rule="evenodd" d="M5808.4 23.6a53 53 0 0 0-8.2 5.8c-2.8 2.4-11.5 9.3-19.4 15.4-15.2 11.8-15.8 12.5-24.4 29.2-11.5 22.2-18 24-34 9-18-17.2-31-15-42.7 7.1-2.5 4.8-4 6.5-6.7 7.5l-50.5 19.3-68 26-71.5 27.6-68.5 26.3c-56.3 21.9-74.5 29-98 38.5-110 44.4-210 74.3-306 91.6a813 813 0 0 1-134 14.1c-55.1 1.6-71.2 3.3-114 11.6l-28.3 5.4q-.2-.2.3-2c.9-2.7 2.2-3-32.7 6.9a906 906 0 0 1-46.8 12c-43 9-104.8 26-153.1 42.1-21.5 7.2-41.3 13-149.9 44-150.4 43-254 62.4-357 67.1-27.6 1.3-77.4.6-98-1.3-25-2.3-96.2-1.7-117.8 1-23 2.8-23.6 2.8-23 .2.8-2.8 6-3.4-44.2 5.5-10.7 2-34.9 5.7-53.7 8.5-62.5 9-101 16.2-142.3 26.4-28.2 6.9-29.5 7.1-81 15.6a3595 3595 0 0 0-68.5 12c-96 18.2-170.7 28-245.5 32a896 896 0 0 1-216-12 532 532 0 0 0-99.2-9.7c-32.1-.5-33.7-.6-32.8-2.4 1.5-2.6 1.3-2.9-1.7-2.4-8.2 1.5-79.5 6.7-102.3 7.5-49.9 1.8-98.3 6-138.5 12-11 1.6-30.1 3.6-42.5 4.5l-47.5 3.5c-171.3 13.5-179.7 14-238.5 14-101.7 0-181.5-9.6-270.5-32.5-61.8-16-92.3-21.7-127.5-24-12-.9-12.7-1-10.5-3.5 2-2.2-3.9-2.6-49-3.5a2123 2123 0 0 1-55-2c-36.9-2-104.8-2.9-128.5-1.8-11 .5-34.6.6-54 .1-19-.4-71.4-1.2-116.5-1.7-80.7-1-96.8-1.6-137.5-4.6-112.5-8.6-208.7-28.1-286-58A1051 1051 0 0 0 862.5 478a2082 2082 0 0 0-195-34.3c-.2-.1.2-4 .7-8.7q2.5-22.3-8-26.6c-3.1-1.4-4.6-1.3-15.6.5-6.6 1.1-18 3-25.1 4a50 50 0 0 0-30 11.6c-18 12-23 13.6-28.3 9-3.3-2.7-3.7-3.6-8.1-18.2-4-13-9-19.2-16.1-20-11.4-1.3-19.2 3.8-52.6 34-23.7 21.5-42.4 32.8-60.7 36.6-5.4 1.2-14 4-19.5 6.5-14 6.2-16.8 7-25.7 6.8-11.6-.3-16.4 1.6-24 9.4a74 74 0 0 0-19 48c0 11.5 1.3 13.6 10.1 16.8 8.1 3 10.5 4.5 26.3 16.4 13.6 10.3 20.7 14 28.9 15 6.4.7 15.4-4.3 37.9-21.1 28.4-21.4 40-27.6 52.4-28 11-.3 18.4 7 23 22.8 5 17.2 8 21.5 15 21.5 6 0 11.2-3.3 21.9-13.6 9.4-9.1 9.8-9.4 19.9-13 5.6-1.9 13.7-4.8 17.8-6.5 4.2-1.6 8-2.6 8.4-2.2 1.6 1.7 12.8 28.4 42.4 101.3a4545 4545 0 0 0 189.3 406.5c51.8 99.1 87.5 148 120.1 164.3a35 35 0 0 0 41.6-6.6c17.4-17.5 18.5-50.2 3.6-101.4-10.2-34.7-24.4-69-61.4-148.3-33.6-72.1-91.8-205-117.7-268.6-7.4-18.4-11.3-25-24.5-41.6s-20.8-28.6-19-30c6.7-4.8 38.8-4.1 54.5 1.2 9.2 3.1 8.8 3.1 9.2-.7.3-3 .6-3.3 3.2-3 8.5 1 43.2 12.7 83.8 28.6 103.3 40.1 238.7 60 389.3 57.2 49.5-1 95.5-3 98-4.3 2.4-1.3 20.8-5.5 36.5-8.3 22-3.9 87-10.3 88.7-8.7 3.6 3.7-37.6 74.2-67 114.7a2709 2709 0 0 1-89.6 115.9 8143 8143 0 0 0-86.4 108.6c-70.2 89.4-97 121-158.3 188-19.2 21-37.9 41.7-41.6 46-35.9 42.7-82.3 57.9-135.7 44.5-21.8-5.5-35-12-59.2-29.1-13-9.2-20-12.6-23.5-11.3-12.6 4.4-8 32.3 9.6 58.5 2.4 3.5 8.2 10.2 13 15 52 51.6 141.3 56 210.5 10.2 14.4-9.6 20.7-15.2 65-58.6 23.2-22.7 52.2-50.8 64.5-62.6 12.4-11.8 42.5-41.1 67-65l46.3-45.1c1-.8 21.4-21.5 45.5-46 95.7-97.5 143.9-152.2 213.7-243 24.7-32.1 24.7-32.2 25.6-31.3.4.5 7.3 13.2 15.4 28.3 51.8 96.7 143.4 247 217.2 356.5 61.1 90.5 105.6 133.7 137.8 133.8 10.4 0 16.2-2.4 23.8-10.1 10.1-10.3 13.2-19 13-37.7-.1-42.5-23.7-94.7-99.4-220a5383 5383 0 0 1-134-238l-10.4-20-15.6-16c-8.6-9-18.7-20.2-22.4-25-7.8-10-7.8-10 2-13.2 7.5-2.4 36.6-3 46.5-.9 4.1.9 14 2.7 22 4 21 3.6 44.7 9 67.5 15.1 115.6 31.4 231.4 39.5 374.5 26a2767 2767 0 0 0 125.4-15.5c3.8-.6 7.6-1.5 8.6-2 13.2-7 120.6-32.8 123.7-29.6 3.6 3.6-27 71.2-51.5 113.6-19.1 33.3-47.3 78-88.2 140-15.8 24-43.7 66.9-62 95.5-68.6 106.8-105.2 159.8-149.8 217-6.9 8.8-20.3 26.3-29.8 39-23.1 30.9-33.8 41.2-53.1 50.9a121 121 0 0 1-59.3 14.3c-31.3.9-54.4-5.4-85.4-23.2-6.3-3.6-13.4-7.2-16-8.1-26.3-9-16.1 34.8 14.7 63.2 13.1 12 34 24.1 51.2 29.7 53.4 17.4 112.6 5.5 163.4-32.6 18-13.5 21-16.6 51.6-53.7 23.1-28 41.6-49.8 103-121.5 74.5-87 142.2-170.2 187.1-230 37-49.2 46.3-63 105.6-156 13.7-21.5 25.3-39.3 25.7-39.8s8.3 10.6 17.5 24.4c54.2 81.3 165.2 227.6 247.7 326.4 91.7 109.9 147.8 146.8 177 116.4 21.6-22.7 15.7-60-19.1-120-16.7-28.5-31.8-50.3-79-113.4a8559 8559 0 0 1-167.7-234.7c-15.5-22.6-14-21-31.8-35.8-7.7-6.4-18-15.4-22.9-20l-8.8-8.4 2.7-2.1c3.2-2.6 13.5-6 22.8-7.6q6.9-1.1 36-.6c31.2.5 39 1.2 74.2 7.3 70.9 12.2 104 15 168 14 96.3-1.2 176.4-11.8 294.5-39 44.6-10.2 47.4-11 65-19.5a627 627 0 0 1 94-33.5l17.6-5q1-.6.2 5.6c-5.3 39-44.8 130-103.3 237.8a6052 6052 0 0 0-57.5 109c-71.4 138.5-84.6 161.9-147.9 262.5-31.8 50.5-35.6 55.6-51.6 68a137 137 0 0 1-92.9 28.2c-22-1-38.2-5-64.6-16.3-19.8-8.4-23.7-8.8-27.6-3-6.3 9.7 9.7 39 30 55.4 56.1 45.1 147.2 38.6 211.1-15 21.6-18.1 27.7-25.9 78.5-99.8a21311.6 21311.6 0 0 0 135.6-192.5c74.5-107 139.5-213.9 173.8-285.5 6.9-14.3 33.7-67.3 34.5-68.2.4-.4 9.1 9.6 19.5 22.3 47 57.6 147 165.1 240.6 259 68 68.2 92.6 90.6 125.1 114.4 47 34.3 82.3 43.5 100 26.1 9.4-9.3 14-23.5 12-38.2-5-38.8-40.8-90.7-123.1-178.3-33.8-36-47.9-51.4-94.5-103.6-47.4-53.2-75.2-85-107.3-123-17-20-17.7-20.6-38.2-34.6-16.3-11-29.2-20.8-29.7-22.6-1-3.2 22.8-12.3 37.5-14.2a801 801 0 0 1 105.2-.2c131.6 10 249.9-6.6 418.1-59a1286 1286 0 0 0 68.4-23c9.4-3.3 19.5-7.5 22.5-9.3a735 735 0 0 1 117.8-53.6c1.8 0-3.5 30.8-8.9 51.8-15.5 60.3-36.6 119.4-74.4 207.7-14 32.7-24.2 57.5-41 99-62.9 155.8-75.7 184.5-130.6 291.5l-11.3 23c-14.2 29.5-31.4 48-57.6 61.8-36.5 19.3-76.5 21.2-126 6.2-16.3-5-23-6-26.3-3.7-7.6 5-1.4 22 14 38.7 37.7 40.6 106.2 50.5 167.7 24.1a185 185 0 0 0 60.1-41.6c19.4-19.3 22.7-24.3 61-92 20.9-37 39.7-69.8 78.5-137 88.5-153.2 141.7-255.8 176.5-340.5l17-41.5c6.6-16 17.8-44.2 23.5-59.2l4.3-11.2 23.6 22.8c37 35.8 113.9 104.3 170.6 152.2a6280 6280 0 0 0 121 99.4c128 103.5 199.4 131.3 220.7 86 9.4-20.1.4-48.5-26-82.3-24.9-32-56.6-62.8-128.2-124.7-15.1-13-53-47-84-75.4-53-48.5-73.7-67.8-119.2-111.5-23.2-22.1-25.2-23.7-44.7-33.6-16.2-8.3-34.1-19.2-34.1-20.9s6-6 12.2-9.2a119 119 0 0 1 34.8-10.3 761 761 0 0 1 105.3-9.6c140.7-5.5 278.6-42.6 456.2-122.8 25.6-11.5 31.8-14.8 42.5-22.1 17.8-12.3 26-17.5 46.5-28.8a1055 1055 0 0 1 59.1-30.3c1.3 0-.5 32.7-2.6 46.5-5.2 34.6-15.5 80.6-27.9 124.5l-11 39c-3.3 11.8-10.1 34.1-15 49.5-9.3 28.3-19.8 62.8-49 160.5-31.2 104.5-48.4 154.4-77.4 225-4.6 11.3-11.4 29-15.1 39.5-13.4 37.5-27.2 56.8-53 74-35.8 23.8-75 29.8-127.8 19.5-8.3-1.7-17-3-19-3-19.8 0-10.8 24.5 16.5 45.1 38.6 29 101 31.5 154.5 5.9q68.8-32.8 99.1-108.7c7.4-18.5 33.2-75.8 71.6-159.3 102-221.4 135.5-308.7 182.5-474.7l17-60.7c0-.3 4-.6 8.8-.6 18.8 0 23.3-3.6 35-27.8 20-42.2 22.8-47 31.9-55.9 12.1-12 23.7-10.8 40.2 4.1 9 8.2 13.2 10.6 18.4 10.6q11-.1 17.8-26.5c2.2-8.9 2.4-9.1 10.4-17.5 18.9-19.7 37.5-42 41.4-49.7 7.2-14.3 6.9-37.2-1-64.3-12-41.4-23.7-57.2-37.5-50.4m-1176 1144.3c-.8 64.7-30.2 147.4-70.4 198.1-17.4 22-55.6 57-71.3 65.5l-3.3 1.7-11.6-6.5a343 343 0 0 0-114-37.2c-33-5.2-30.8-5-30.8-3.4 0 .8-2.3 16-5 33.9-7.8 50.2-9.9 64.3-12 80-1.7 13.2-14.3 98.8-15.5 105.3l-.4 2.7h20c60.6 0 114.5-12 171.5-38l10.7-4.8 8.6 5.7a286 286 0 0 1 79.3 79.1c17.4 26.5 40.2 82.5 52.3 128.2l3.5 13.6-2.6 10.9a137 137 0 0 0-.6 53.5c6 24.5 17.9 36.6 37.2 38.4 6.6.5 8 .4 11.5-1.5a18 18 0 0 1 5.6-2.1c1 0 5.4-1.9 10-4.2 16-7.9 31.5-26.4 48.5-57.8 37.7-70 67.8-106.4 111.6-135 34.4-22.6 77-38.3 117.8-43.5l41.8-5.5q.1.2.2 1.7 0 1.5 1 .8c1.2-1.3 5-24.8 11-69a14810 14810 0 0 1 15.3-109.8c-1.7 4.8-58.5 2.4-87.1-3.8-50.2-10.9-90.2-40.4-110.6-81.7-15.9-32-27.5-107.8-28-181.7 0-24.9-.3-29-1.6-29.2a15370.5 15370.5 0 0 1-87-7.2 10524 10524 0 0 0-103.5-8.4c-1.9-.3-2 .3-2.1 11.2M1441 1353.5c0 .2 1.8 1.4 4 2.5 4.5 2.3 4.6 1.1-1.5 17.5q-14.6 39.2-20.5 82.5c-2.5 17.7-.9 15.3-17 26.1a209 209 0 0 1-46.5 23c-20.2 6.7-103.1 23-166.5 32.5-27.5 4.2-29 4.2-34.2.7a242 242 0 0 0-60.3-28.7 50 50 0 0 1-12-5q.3-.5-.5.1a732 732 0 0 0-16.8 33.8c-8.8 18.2-29 59.5-45.1 91.8-16.1 32.4-29 59-28.9 59.3s2.6-4 5.3-9.1c3.7-7 5.4-9.4 6.5-9 2.3 1 32.7 8.2 39.5 9.5 13 2.4 33.8 5 50 6.1l17 1.2 5.5 4.6c48.6 40.6 85.8 103.5 100.4 169.6 7.6 34.8 8.7 48 9.6 123 .8 68 .9 69.1 6 83a34 34 0 0 0 45.9 20.3c10.3-4.4 22-14.7 33-29.3 38.3-50.2 96.4-87.7 154.8-100 53.2-11 117.7-5.2 164.4 15.1l10.7 4.7-2.4 5.2c-1.2 3-6 12.6-10.4 21.5s-8 16.4-7.7 16.7c1 .9 21.8-39.5 22.3-43.2a4117 4117 0 0 1 44.6-91.5l50.9-103 6.5-13.4-7.5-3.6a570 570 0 0 1-86.1-49.9 244 244 0 0 1-94.4-160.1c-2.8-22.1-3.3-19 4.3-27.8 20.6-23.9 35.8-46.8 49-73.6 5.6-11.2 10-21 10-21.7 0-.9-9.4-5.6-24.2-12.1l-58.7-26.1c-19-8.5-37.7-16.6-41.5-18.1a643 643 0 0 1-35-15.5c-.5-.4-3.7-1.8-7-3.1a55 55 0 0 1-7-3.1c-1.7-1.3-8.5-4-8.5-3.4m3256.5 37.3a528 528 0 0 1-94 108.3l-12.1 10.6 6.3 6.9a453 453 0 0 1 92.4 153.7c3 8 5.6 14.7 6 14.7a444.2 444.2 0 0 1 33-40.5c21.9-23.9 51.3-48.7 82.2-69.4l13.8-9.3-10.3-7a252 252 0 0 1-91-108.8c-5.5-12.6-11.2-30-16.8-51l-4.4-15.7c-.2-.2-2.5 3.2-5.1 7.5M1430 1627.6c-21.8 10.1-70 24-127.2 36.8l-18.6 4.1 8.8 14.9a417 417 0 0 1 61.7 210.2l.6 22.1 5.7-3.8a622 622 0 0 1 76-39.2 406 406 0 0 1 150.4-32.7h14l-12-8.2a411 411 0 0 1-65-55.8c-35.7-38.7-68.6-92.5-84-137.3-2.4-7.2-4.6-13.2-4.7-13.3s-2.7.8-5.7 2.2m4176.5 146.6-62.5 12.7a8527 8527 0 0 1-99.7 20.1c-3.5.7-6.3 1.8-6.3 2.4a270 270 0 0 0 35.7 79.8c.7 1.4-12 19-18.5 25.4-3.7 3.6-11.2 10-16.7 14.2a484 484 0 0 0-53.1 46.8l-18.1 18.2-9.3 1.1a228 228 0 0 0-40.6 8.6c-11.7 3.7-14.4 4.2-14.4 2.3q0-1-.5-.6c-.6.6 3 26.5 13 94.3 8.1 55.8 10.8 76.8 10.2 81.4s3.9 41.9 4.9 40.8c.2-.2-.3-7.3-1.1-15.8s-1.5-17-1.5-19v-3.7l12.3-4.8c20-7.7 36.1-16.3 60.5-32 11.2-7.4 11.3-7.4 18.1-7.4 16.4 0 50.1 10 72.8 21.4 32 16.2 54 34.8 90 76.6 31 36.2 43 46 60.7 49.7 9.4 2 15.8 1 26-3.6 17.1-8 24.5-21.8 31.1-58.8 9.5-52.8 50.9-94.3 117-117.3 10.7-3.7 23.1-6.7 24-5.8.2.2 2 10.9 3.9 23.7s3.7 23.6 4 23.9c1 .9.7-1.2-2.9-24.8-8-53.5-34.5-236.8-34.5-239.6v-3l-6.7.8c-3.8.5-15 2.7-25.1 4.9-30.4 6.5-37 7.4-55.7 7.3-33.5 0-61.9-8.7-86-26.5l-5.1-3.7 1.2-9.3a253 253 0 0 0-1.4-75l-1.7-10.5zm-179 36.3c-6.7 1.7-3.6 1.8 4 0 3.3-.7 4.9-1.3 3.5-1.3s-4.7.6-7.5 1.3m127.8 197.4-20.2 20.7 6.7 3.3c38.1 18.8 78 50 105 82.3 4.1 4.9 7.7 8.8 8 8.8.4 0 3-4 5.7-8.8a320 320 0 0 1 72-86.7l10-8-19.8.4a308 308 0 0 1-135-28c-5.8-2.7-11-4.9-11.4-4.8-.4 0-9.9 9.4-21 20.8m-3368 1.4q-.6 89.5-53.6 149.1l-4.3 4.9-8.7-5.1a276 276 0 0 0-67.2-26c-15.5-4-47.2-9-48.4-7.6-.4.5-4 22.5-8 48.9l-9.6 63a3596 3596 0 0 0-16.1 114q.5.9.5-.2c0-1 3.4-1.3 12.8-1.3 52.6 0 98.4-11.8 146.6-37.7 7.6-4.1 14.2-7.3 14.7-7.1 2.6.9 20 17 27.5 25.5 18.6 20.8 30 42.2 43.4 81.7l6.2 18-2.1 10c-6.8 33-.4 60.2 17.3 73.2 14.5 10.7 40.1 10.4 62.7-.7 15.3-7.6 23-16.7 43.5-51.2 12.4-20.9 19.1-30 30-41.2a167 167 0 0 1 69.2-41.4c9.7-2.9 43.6-10.2 44.9-9.7q1 .3 1.2-.7c0-.7 2.4-16.3 5.2-34.7 8-52.6 26-178.3 25.6-178.7-.4-.5-1 2.2-3.7 20.7-1.1 8-2.2 14.6-2.4 14.8-1 1-21.1 2.4-37 2.5-32.3.1-53.4-7.3-71.5-25.3-18.7-18.5-21-27.4-23-88-2.5-79.2-2-72-4.4-72-2.3 0-29-2.1-92.6-7.5l-95.5-8-3-.5zM445.9 2071c.5 9.8-1.7 39.9-4 53-6.2 36.5-20.7 71-39.8 95-6.4 8-14.3 17-15 17-.4 0-3.8-1.9-7.7-4.2-26.5-16-84.8-33.7-112-33.8h-5l-7.2 47.3c-4 26-8.4 55.5-9.8 65.7s-5.6 38.9-9.5 63.8c-5.8 38-8.3 57.8-6.2 50 .4-1.6 2.2-1.8 18.6-1.8 48.4 0 97.8-13.5 144.6-39.4l10.3-5.7 6.9 5.7a241 241 0 0 1 34.2 36.5c10.9 15.2 20.5 36.1 31.3 68.2l5.3 15.9-2.1 9.6c-7.2 32.3 1.2 64 19.7 74.7a52 52 0 0 0 34.3 6l12.4-3c21.1-5.3 33-15.8 50-44.4 18.2-31 25.2-40.6 38.2-53.7a157 157 0 0 1 62.6-38.8c14.2-4.9 49.3-12.7 50.2-11.3 1 1.6 1.5-.4 2.3-8.3.4-3.6 2.7-18.9 5.1-34 2.5-15.1 6.3-41 8.5-57.5l7.4-53.5c4-27.1 4.4-30.1 3.8-27.8-.5 2-16.4 3.3-41.3 3.2-15.6 0-18.6-.4-27.5-2.8-30.5-8-53-28.4-59.4-53.8-2.2-8.7-3.5-29.2-5.2-87.7-.9-26.4-1.6-40.4-2.3-40.7a12129 12129 0 0 0-189.6-15.7c-2.5-.3-2.5-.2-2.1 6.3M4938 2073c-38.7 3.4-85 18.6-118.8 39-61.3 37-111.5 101.2-131.1 167.9l-8.7 29.5c-35.4 120.8-90.7 237.9-166.3 352.2l-14 21.1-6.4.6c-8.2.7-51.3 2.3-93.8 3.6-67.3 2-75 2.8-96.5 9.7-53.8 17.3-92.1 51.8-126.5 113.8a377 377 0 0 1-19 30 412 412 0 0 0-79.8 237l-.7 22.9-15 10a1782 1782 0 0 1-332.5 175.3c-53.5 21.8-136.1 50.4-160 55.3-59.6 12.4-114 19.3-174 22a74518.8 74518.8 0 0 1-162 8.5q-83.8 4.5-150.5 8.5c-63.6 4-160.5 9.1-251.5 13.5-86.3 4-146 2.1-182.5-6l-21-4.5c-13.5-2.6-55.6-12.6-79-18.7-103.2-26.7-190.6-58.5-300.5-109.3-47.6-22-47.3-21.9-46.6-24.3 6.9-23.5 7-37.9.8-70.2-16.3-84-40.6-146.9-78.3-202.5-28.3-41.8-75-85.8-110.4-104-71.4-36.6-184-41.4-292-12.4-5.5 1.4-47.5-57.2-81.4-113.4-43.2-71.8-75.3-142.7-107.5-236.8-11.5-33.8-19.7-51.2-34.2-72.9a241 241 0 0 0-156-104.9 280.9 280.9 0 0 0-308 162.9A239 239 0 0 0 1016 2610c3.2 21.7 5.7 31.6 16.8 66a1613 1613 0 0 0 267.5 503l9.7 12.7-2.5 17.4a487 487 0 0 0-4.6 46.9c-2.7 34.6-.5 177.3 3.3 213.5 3.1 30.5 14.2 61 31.8 87.2 25.6 38.4 58 62.6 112.1 83.8 8 3.1 19.7 8.6 26 12 79.5 43.9 172 57 265.8 37.9 36-7.3 67.1-19.3 90-34.5l7.2-4.9 23.2 13.4c33 19 52.4 29.4 85.7 46.4l29.1 14.9-13.7.6c-45 2.1-132.2 7-177.8 9.8-35 2.1-179.4 11.5-191.5 12.4-15 1.1-115.8 9.5-126.3 10.5-30.6 3-75.4 2.8-100.2-.3-33-4.2-105.2-18.5-149.5-29.7-288.4-72.6-523.5-222.9-678.4-433.4-56-76.1-93.3-147-129-245.1a619 619 0 0 0-23.1-58c-29-58-84.4-97-147.5-103.5-85.6-8.8-162.6 28-207.3 99a187 187 0 0 0-31.4 113.5c1 29.3 2.2 34.4 28.4 114 58.5 178.1 154.8 352.8 282.4 512.5a1288 1288 0 0 0 251.2 239.9c96.6 69.5 228.4 139.3 330.6 174.8 35.2 12.2 68.6 25 73.2 27.9a68 68 0 0 1 31.9 57.7c0 4-1.8 21.8-4 39.7l-5.5 48.5c-1.8 18-12 102.8-16.6 138.5-1.7 13-15.2 99.1-30 191.5A68524 68524 0 0 0 904 4889c-15.8 92-15.5 144 1 200.7 36.7 125 145.3 215.5 272 226.3 17.1 1.5 55.2 1.2 74.5-.5 15-1.4 304.5-26.2 383.5-33a13783 13783 0 0 0 164-14.5c29.6-2.7 87.2-8.3 162-16a5519 5519 0 0 0 205.8-26c30-4.3 48.5-7.5 67-11.6l11.4-2.6 8.2 5.5c44.8 30 88 49.5 135.1 60.7 47.7 11.4 96.3 13.4 176 7 6.6-.6 19-1.4 27.5-2a24898.7 24898.7 0 0 1 103-7c39.8-2.7 87.8-6.4 207.5-16l77-6c22-1.7 49.4-4 61-5l125.5-12 53-5c114.6-10.6 152-14.2 170.5-16l112-10.5c55-5 110.6-10.4 147.5-14a1996 1996 0 0 1 63.3-5.5c47.6-3.5 110.6-19.7 146-37.6 5.9-3 4.9-3.1 22.1 1.5 33.2 9 86.8 14.3 129.1 12.7 21.4-.8 94.3-4.1 135-6.1 35-1.7 105.4-4 175-5.6 25.9-.6 122-1.3 213.5-1.4 214.7-.4 283.3-2 417-9.5 79.6-4.5 115.6-12.9 176.3-40.9 30.3-14 74-45 102.6-72.6a403 403 0 0 0 120.2-249.9c1.5-16.5.6-60-1.6-75.6-2.7-19.7-6-34.1-26.5-116a5561 5561 0 0 1-24-98.5c-4-18.6-57-276.5-89.3-434l-16.2-79v-16c.1-14.4.4-16.9 2.9-25a116 116 0 0 1 29.5-49.5c10.5-10.5 16.3-14.2 50.6-32.7a1964 1964 0 0 0 548-434.3c125.6-143.6 231.3-326.8 278.4-482.7 27.6-91.4 34.8-167.7 17.4-184-8.5-7.8-26 3.8-42 27.7-14.2 21.3-27.2 45.2-62.3 114.5-93.6 184.7-157.3 285-255.3 401.8-158.1 188.4-315.2 314.4-545.2 437.2-50.7 27-65.4 37.2-91 63-48 48.1-76.7 123-72.5 189.6 1.3 20.1 37.7 208.1 69.4 358.4 18.4 87.3 37.5 174 55.1 251 24.1 105.4 28.4 125.8 29.5 142.3 5.9 86.7-37.6 169.4-115.2 218.8a223 223 0 0 1-69 28.8c-26.1 6.8-53 8.8-178.8 13.6-89.2 3.4-130.5 4-281 4-80 0-165.7.5-190.5 1-96.9 2.1-154.3 4-212.5 6.6q-59.4 2.8-67.2 1.1l-3.8-.8 3.6-3.1c2-1.7 4.4-4.7 5.5-6.7l6.5-11.1a607 607 0 0 0 27.8-56.6c35-87 44.4-169.3 29-254.4-5-28.7-18.7-86.8-75.5-322.5-104-431.8-124.8-519.3-126-531.3-2-22 3-48.4 13.5-69 6.9-13.6 24.5-34.9 33.3-40.3l3.4-2.1 28.2 4.5c80 13 115.8 13.7 207.7 4.7a70864 70864 0 0 1 282-26c84.2-7.5 87.9-7.8 122.5-10.5a7580 7580 0 0 0 92.5-7.5c65.6-5.4 103.5-11.6 140.5-23.1 7.1-2.3 13.4-4.5 14-4.9s8.6-3.5 18-6.8c381.4-134.7 698.5-408 863.4-744.4a908 908 0 0 0 62.7-163.3c22-76.5 31-95.3 59.3-123.6a182 182 0 0 1 136.1-55.3q76 .2 126.6 52.6c33.1 34.3 48.8 73.7 54.4 136.9 2.1 24 6.4 28.6 14 15 1.8-3.1 4.2-7.4 5.6-9.6 11.2-18.4 13-59.6 4.3-94.9a209 209 0 0 0-151-151.6 269 269 0 0 0-130.4 1.2c-43 12.2-80 34.1-112 66.2-38.6 38.5-52.8 64.8-80.3 148.6a979 979 0 0 1-45.6 118.2c-67.3 148.5-176.6 290.4-316 410.2-132.5 114-296.6 207.5-478.6 273-101 36.2-97.4 35.6-313 48l-31.5 2c-4.5.5-4.7.4-2-.6 41.5-14.8 61.1-27.5 101-65.4 8.3-7.8 19.3-17.5 24.5-21.5a440 440 0 0 0 137.2-181.4c32.4-82.2 36-153 9.7-187.2-20-26-66.5-19.8-87.4 11.6-7.9 12-12.6 25.4-21.9 62.6-11.8 47.3-26.7 79.9-51.5 112.8a809 809 0 0 1-96.2 99 155 155 0 0 1-81.8 34.2l-6.3.7 11.9-15.8c6.5-8.8 21.5-29.4 33.3-45.9 48.7-68.3 98.8-135.6 110.8-149l26.6-29.2c54.3-59.6 106-124.9 156.6-197.6l16.4-23.7 2.3 6.3 8.9 24.7c24.4 68.2 36.5 88 53.8 88 8.2 0 16.7-8.3 22-21.4 10-25.3 7.7-61.3-7.9-117.9l-11.4-41.4c-4.5-16.1-8.1-29.8-8.1-30.3s5-9.9 11-20.6c18.2-32 26.7-47.8 37.5-69.4 62-124 105-248.8 120.2-349 3.4-22.6 4-57.5 1-65-4.6-11.5-11.7-11.1-23.4 1.3-14.1 15.1-29.8 44-74.3 136.7-100.4 209.1-193.7 358.7-315.4 505-148.4 178.6-314.2 321.9-529.6 457.7a2090 2090 0 0 1-150 84.5c-50.1 25.6-74.1 42-100.5 68.3-45 45.1-75 103.6-85 166-2.2 13-3.1 52.6-1.6 66.4.6 5.7 7.7 42.8 15.6 82.4A64028 64028 0 0 1 3911 4379l47.5 245c21.5 110.4 20.5 104.3 21.2 133.1.6 26.1-.3 39-4.2 58.4-16.7 83.1-67.5 153.8-143.5 199.6-44.1 26.6-85.6 38.3-147 41.4-15 .8-61.6 4.5-207.5 16.5-60 5-142.7 11.7-184 15a66212 66212 0 0 0-368.5 30.5 13245 13245 0 0 1-152 12c-52 3.9-170.8 12.5-213.5 15.4-74.6 5.2-109 2.7-148.5-10.7-16.6-5.7-20.4-7.8-26.7-14.3a464 464 0 0 0-21.3-19.8c-52.7-46.4-83.9-90.9-102.4-146.2a236 236 0 0 1-14-84.4c0-31.7 1-37.4 52-296.5a39553 39553 0 0 0 40.9-210.5c4.7-24.7 24.3-124 43.5-220.5 19.3-96.5 35.7-181.6 36.6-189a264 264 0 0 0-39.3-173.5c-27.1-41.1-69.5-77.8-108.5-94-15.7-6.4-19.3-7.3-25.8-6-5.3 1-6 1-18-3.6a2002 2002 0 0 1-342.5-167.7c-63.8-39.4-86.7-57.5-152.8-121-92.6-89-95.8-91.6-162.8-134.5l-27.6-17.7-19-19.3c-166.2-169.6-282.7-360.2-361.3-591.2-9.8-28.8-11.2-35.2-11.2-52.5-.2-52.4 35-101 87.5-120.4 10.6-4 25.9-7 43.8-8.5 51.7-4.5 97.5 22.3 122.2 71.5a267 267 0 0 1 10.8 28c28.5 87.4 69 175 119.4 258.4a1618 1618 0 0 0 51 78l6.3 8.6-9 3.3a49 49 0 0 0-9.4 4.2 362 362 0 0 0 23.4 29.2c52.9 62.5 73 93.5 90.7 140.2a197 197 0 0 0 22.4 45.2c23.2 34.8 56 58 107.8 76.7 23 8.3 21.7 7.8 34.7 16a1377 1377 0 0 0 156.2 82.6l10.2 4.2-4.4 8.2a55 55 0 0 0-4.4 9.4c0 .8 4.4-1 11.4-4.8l11.5-6 7.8 3.8c4.3 2.2 11.3 5.1 15.5 6.6 4.3 1.4 17 7.8 28.5 14.2 149.7 83 332.7 149.4 510.7 185.3 27 5.5 30.5 6 66.6 9.9 41.6 4.4 107 4 174.5-1.1 112.5-8.6 249.6-19 301-22.7a73637 73637 0 0 0 291.5-22c56.8-4.1 148.5-22.6 196-39.5a2040 2040 0 0 0 456.8-229.7l28.9-19.4 4.9 3.3c9 6.1 21.5 8 33.2 5l5.2-1.4-3.5 4a164 164 0 0 0-19.7 30.8c-17.8 42.4 26.4 48.8 77.7 11.3 10.4-7.6 29-20.4 67-46.1 92.5-62.5 128.6-90 168.7-128 38-36.2 56.4-61.5 88-120.8 15.4-28.8 23.4-45.2 69.6-142.5l32.6-68.4a569 569 0 0 0 18-39.7c-.3-.5-1.7-.9-3.2-.9s-15.1-1-30.3-2.2l-27.6-2.2 12.9-21.3c61.4-102 114.9-224.6 142.3-326.8 7.5-27.8 12.9-46 17.2-57.5 25.3-68.1 87.6-123 156-137.4 44.6-9.4 84.6-8.2 122.8 3.5 58.9 18.2 109.3 68.5 131 130.8 9.2 26.8 12 44.3 13.4 84.6.7 22 1.5 26.5 4.6 26.5 5.5 0 15-24.7 19.7-51 2-11.6 1.7-53.7-.5-66.5a230 230 0 0 0-61.7-122.9c-53.9-55.8-126.3-81-211-73.5m-2929.4 23.7-1.1 7.7q-.6 3.4.4 1c1-2.3 2.5-13.5 1.8-13.5-.3 0-.8 2.1-1.1 4.8m-2.5 16.2c0 1.4-.4 3.6-.6 5l-.6 2.5 1.1-2.5c.6-1.3 1-3.6.7-5l-.4-2.5zm244.6 95.5a645 645 0 0 1-16.9 20.6c-8.3 9.8-11.8 14.6-11.2 15.5l8.1 10.7c17.2 22.7 30.4 46 44 77.9l1.2 2.6 14.8-14.7a385 385 0 0 1 22.2-20.6l7.3-5.9-3.8-3c-9-6.8-29.1-28.4-36.1-38.7-8.7-12.8-16.8-29-20.9-41.6-1.6-5.1-3.1-9.2-3.4-9.2s-2.7 2.9-5.3 6.4m859.8 23.6a470 470 0 0 0-170.6 44.9c-139 64.5-253 193.6-305.4 346-48.6 141.5-43.1 298.4 15.5 446 29.1 73.4 57.5 121.8 92.5 157.9Q2867 3355 3075 3327c8-1 18.6-2.2 23.5-2.6 34.8-2.5 72.3-9.4 105.8-19.4a534 534 0 0 0 301.2-233.6c42.6-70.6 65-143.2 63.2-205-1.7-58.6-22.5-91.7-52.2-83-26.8 7.7-37.7 25-65 103-43 122.7-102.2 197.2-198.6 249.6-49.5 26.9-121.7 46-191.9 50.9-98.2 6.7-183.4-27.7-230.5-93-20.9-29-48.6-95.3-63.8-152.5-16.5-61.8-24.3-131.7-20.7-186 7-104.8 44.5-196.7 109.7-268 82.4-90 204.9-141.8 316.3-133.6 81.6 6 136.1 19.7 195.5 49.1 81.4 40.3 132.5 92.7 179.6 184.4 15.7 30.7 24.4 51 38.6 91.1 29.6 83.4 33.4 91.8 43.5 97 8.3 4.4 16.4-4.8 22.3-25 9.9-34.2 6.5-85-9.1-136-58.3-190.5-199.8-326-386.6-370.4a548 548 0 0 0-145.3-12m-2599.9 45.4c-2.6 4-14.1 18-24.3 29.6l-9.3 10.7 6.2 7.8a366 366 0 0 1 42.3 71.5l6.2 13.7 4.9-6c6.3-7.7 16.5-17.4 29.8-28.3l10.5-8.7-4.7-3.8a176 176 0 0 1-55.7-78c-4.2-12.3-3.8-11.7-5.9-8.5M4368 2831c-35 4.6-68.3 32.7-94.8 80.1a1165 1165 0 0 0-33.7 65.9c2.1 0 35.7-30.6 64.9-59 29.2-28.5 81.6-84.4 81.6-87 0-1.1-9.6-1.1-18 0m-2536.2 122c-4.2.4-9.3 1-11.4 1.4l-3.7.8 16.4 16.5a1340 1340 0 0 0 182.4 153c43.8 30.4 87.5 57.7 105.4 65.8 5.7 2.5 11.4 5.3 12.7 6.2l2.5 1.6-2.2-5.4c-1.2-3-6.2-16.7-11-30.4-12-34-14.2-39.2-21-52.2-18.9-36.4-48-67.7-99-106.2-39.1-29.6-66.8-42-109.3-49.2a350 350 0 0 0-61.8-2m2519.2 32.2c-46 44.7-89.3 83.5-132.8 118.8a50 50 0 0 0-10.7 10.5c-.2 1.1-1 7.7-1.6 14.6s-1.6 13.6-2 15c-1 2.4-1 2.4 2.3-.6l12.8-10.6c25.2-20 47.4-43.1 88-91.8 24.2-28.8 36.3-43 46.5-54.1 6.4-7 17-20 16.3-19.9-.2 0-8.6 8.2-18.8 18m-4150 48c-16 2.2-25.6 6.5-34.4 15.5-13.6 13.7-17.7 22.8-17.9 39.5l-.2 11.5 7.7 25c19.8 64 38.5 112.4 74.6 192.7 33.7 75 100.4 185 161.3 266 102.3 136.1 202 229.7 329.4 309 62.2 38.7 96.5 56.8 163 85.8a850 850 0 0 0 58.8 24.6 3127 3127 0 0 1 67.7 25.7c35 13.6 56.6 27.1 76.6 47.9 38 39.3 58.6 90.2 58.5 144.4 0 18.7-1 27-15.7 128.9a34966 34966 0 0 0-27.4 194 12482.5 12482.5 0 0 1-49 308.5c-20 116.8-21.5 128.7-20.1 153a189.2 189.2 0 0 0 153.7 179c26.8 4.8 40.2 4.4 173.9-6l116.5-9a52654 52654 0 0 1 260-19.5 8649 8649 0 0 1 414.8-19.8l3.3-.2-5.6-8a404 404 0 0 1-65.9-159.5c-4.4-25.7-5.1-36.4-5-74a398 398 0 0 1 12.9-112c3-12.4 8.6-36.9 12.4-54.5l21-95.5c20.5-93.1 32.6-149.6 53-248 29.9-143.3 85.7-425.5 87.2-440.2a115 115 0 0 0-62.6-113.6c-3.3-1.6-12.2-5.3-19.9-8.2l-13.8-5.3-12.7 5c-42 16.9-101.2 27.4-184.1 32.8l-33 2.5c-13 1.1-60.8 5-106.5 8.5a32224 32224 0 0 0-233.4 19l-81.6 7.7-67 6.2H1410c-41 .1-77.3-2.1-88.5-5.4-1.7-.5-13.6-2.7-26.5-5-356-62.4-673.2-245.7-863.1-498.5-66-87.8-112-172-151.8-278-16.4-43.6-18.3-47.5-27.5-56.8-14.1-14.3-28.7-18.8-51.6-15.7m1249.7 341.8c-.4 12.5-1.2 28-1.8 34.5-4.8 51 28.4 93.3 95.6 121.8a880 880 0 0 0 74.5 27.4c22.7 6.4 66.7 10.5 82.4 7.7l3.9-.7-14-10A1981 1981 0 0 1 1461 3361l-9.6-8.8zm2841.8 160.9c-29.3 21-54.4 37.1-92.5 59.5l-13.5 8 11-.7c17.2-1 42.7-3.2 99-8.5 28.6-2.7 61.2-5.6 72.5-6.5 21.5-1.7 88.8-8 100-9.3 6.5-.8 6.5-.9 2.5-1.6a344 344 0 0 1-45-11.7l-28.2-8.6-5.2-1.5-5.3 4.6c-6.4 5.6-6.8 5.6-6.8.7 0-9-.5-9.7-8.9-12.1-8-2.3-56.8-20.3-61.1-22.5-2.4-1.2-3.4-.7-18.5 10.2M2712.1 5534.6c-29.3 7.9-46.1 39.9-42.2 80.2 2.4 25.4 10.5 41.8 25.1 51.2 15.6 10 40.2 10.1 63 .2l8.5-3.7.3-33.3.2-33.2h-46.3l.7 5.3c1.4 10.6 0 9.7 15.2 9.7h13.4l-.2 20.7-.3 20.7-6 2.4a58 58 0 0 1-31.3 1.8c-15.8-5.3-23.3-22.2-23.3-52.6 0-28.6 6.7-44.5 22.3-52.7 4.8-2.5 6.3-2.8 15.3-2.8 11.5 0 16.9 1.6 24.3 7.3l4.6 3.5 5.3-5.8 5.2-5.8-4.2-3.3a59 59 0 0 0-49.6-9.8m194.2-.1c-28.4 8-38.4 37.9-18.9 56.4 6.7 6.2 13.9 9.9 32.2 16 26.6 9.2 32.6 14.7 31.2 29.2-1.4 14-13 21.9-32.3 21.9-13.1 0-22-2.9-31.8-10.4l-4.7-3.6-4.2 4.6c-6.6 7.1-6.7 7.3-2.2 11 17 14.5 50.6 18.3 71.9 8.3a35.5 35.5 0 0 0 21.3-33.4c.8-22.3-9.5-33.2-39.8-42.5-18.8-5.8-28.4-11-31.6-17.2a23 23 0 0 1 .1-15.8c7-13.6 35.4-14.9 52.8-2.3l5 3.4 4.8-5.3c2.6-2.9 4.8-5.8 4.9-6.3 0-1.8-13-9.7-20.4-12.3a89 89 0 0 0-38.3-1.7m611.4-.4c-22.6 5.3-36.2 28.8-37.4 64.9-1.5 43.7 13.6 69.7 43 74 37.3 5.6 61.5-29.3 56.6-81.6-3.5-38.3-20.9-58.6-49.8-58.3-4.7 0-10.3.5-12.4 1m300.1.3c-19 5.5-29.5 18.6-28.6 35.6 1 18 11.1 26.7 43.3 37.5 24.2 8 29.5 12.8 29.5 26.6 0 15-11.6 24-31.3 23.9-13.5 0-22-2.8-32.8-10.6l-4.7-3.4-5.2 6a34 34 0 0 0-4.9 6.4l4.9 3.8c23 18.2 65.9 17.8 83-1 7.2-7.7 9.5-14 9.5-26.2 0-21.9-8.4-30.3-41.7-41.6-22.4-7.6-27.4-10.5-30.2-17.5-9.2-22.9 26.8-35.2 52-17.9l5.9 4 5.3-5.7c6-6.5 6-6.6-3.2-12.2a55 55 0 0 0-32.6-8.7c-9.3-.2-15 0-18.2 1m202.5 0c-28.4 8-38.4 38-18.9 56.5 6.7 6.2 13.9 9.9 32.2 16 26.6 9.2 32.6 14.7 31.2 29.2-1.4 14-13 21.9-32.3 21.9-13.1 0-22-2.9-31.8-10.4l-4.7-3.6-4.2 4.6c-6.6 7.1-6.7 7.3-2.2 11 17 14.5 50.6 18.3 71.9 8.3a35.5 35.5 0 0 0 21.3-33.4c.8-22.3-9.5-33.2-39.8-42.5-18.8-5.8-28.4-11-31.6-17.2a23 23 0 0 1 .1-15.8c7-13.6 35.4-14.9 52.8-2.3l5 3.4 4.8-5.3c2.6-2.9 4.8-5.8 4.9-6.3 0-1.8-13-9.7-20.4-12.3a89 89 0 0 0-38.3-1.7M1875 5603v68h80v-14h-62v-48h50v-14h-50v-45l28.7-.2 28.7-.3.7-3.5c.4-2 1-5.2 1.2-7.2l.6-3.8H1875zm82-67.2c0 .4 10 30.9 22.3 67.7l22.4 67 9.4.3 9.4.3 22.3-66.8 22.9-68c.4-1.1-1.5-1.3-8.7-1l-9.3.2-17.6 56-18.2 57.3c-.2.7-8.5-24.6-18.3-56.3l-18-57.5h-9.3c-5.1 0-9.3.3-9.3.8m121 67.2v68h79v-14h-61v-48h50v-14h-50v-45h28.4c15.7 0 28.7-.4 29-.8s.8-3.9 1.2-7.5l.7-6.7H2078zm93 0v68h16v-44.7a1412 1412 0 0 0-1.6-71c.1-.2 10.6 25.7 23.3 57.5l23 57.7 12.7.3 12.6.3V5535h-17v41.3a1313 1313 0 0 0 1.8 74.3c-.2.1-11-25.8-23.8-57.7l-23.5-57.9H2171zm92-60.5v7.5h43v121h18v-121h40.7l.7-4.6c.3-2.6.6-6 .6-7.5v-2.9h-103zm215 60.5v68h18v-58h17.5l18.4 29 18.5 29h21.7l-19.5-29a887 887 0 0 1-19.8-30c-.2-.6 2.2-2 5.2-3 26.6-9.6 35.5-41 17.3-61-8.8-9.8-22.1-13-54.3-13h-23zm106 0v68h80v-14h-62v-48h50v-14h-50v-45l28.7-.2 28.7-.3.7-3.5c.4-2 1-5.2 1.2-7.2l.6-3.8H2584zm198-61v7h30v108h-30v14h78v-14h-30v-108h30v-14h-78zm190 .5v7.5h42v121h18v-121h42v-2.2c0-1.3.3-4.7.6-7.6l.7-5.2H2972zm114 60.5v68h18v-58h17.5l18.3 29 18.3 29h30.5l1.8-5.7 5.3-17 3.6-11.3h53.4l4.9 16c2.7 9 5.2 16.6 5.5 17.1s4.6.8 9.7.7l9-.3-17.9-55-22-67.7-4-12.8H3215l-11.1 34.3-20.7 63.5-9.6 29.3-16.8-25.2c-15.9-23.9-17.5-26.9-14.6-26.9a50 50 0 0 0 19.9-11.7 29 29 0 0 0 9.6-23c.8-16.6-4.5-26.7-17.4-33.5-10.7-5.6-18.6-6.8-45.4-6.8h-23zm190-60.5v7.5h42v121h18v-121h42v-2.2c0-1.3.3-4.7.6-7.6l.7-5.2H3276zm114-.5v7h30v108h-30v14h78v-14h-30v-108h30v-14h-78zm198 61v68h17v-41.2a1308 1308 0 0 0-1.7-73.4c.1-.2 10.6 25.4 23.3 56.9l23 57.2 12.7.3 12.7.3V5535h-17.2l.5 54.8c.4 30 .9 56.5 1.2 58.7s-10.1-22.3-23.2-54.5l-23.8-58.5-12.3-.3-12.2-.3zm293.8-64.7 23 42 21.2 38.6v52.2h18v-51.9l21.1-38.3 23-42 2-3.8h-18.6l-17.9 33.6c-9.8 18.4-18 33.3-18.2 33.2l-17.8-33.3-17.4-33-10.2-.3-10.2-.3zm204.2 4.3v7.5h42v121h18v-121h42v-2.2c0-1.3.3-4.7.6-7.6l.7-5.2H4086zm118 60.5v68h80v-14h-62v-48h50v-14h-50v-45h57.8l.7-4.2 1.2-7.6.5-3.2H4204zm90.6-66.8c-.2.7-1.8 27.4-3.6 59.3l-3.7 66.8-.6 8.7h17.3v-3.3c0-1.8.7-16.1 1.6-31.8s1.9-39.6 2.2-53.4l.7-25 11.4 44.8 11.5 44.8 9-.3 9-.3 10.5-44.4 10.6-44.4.7 14.9c2.4 46 5 92.3 5.4 95.1l.5 3.3h17.2l-.7-7.7c-.3-4.3-2-33-3.6-63.8s-3.3-58-3.6-60.2l-.5-4.3h-24.5l-9.8 43.8c-5.4 24-10.1 44.3-10.5 45a528 528 0 0 1-11.2-43.6l-10.6-44.7-12.2-.3c-9.2-.2-12.2 0-12.5 1m-775.4 13.6c-13.5 5.4-19.1 19.2-20 49.2-1 40.6 8.3 59 30.2 59 22.8 0 31.9-15.3 32-54.5 0-39.3-9.4-55.6-31.9-55.4-3.3 0-8 .8-10.3 1.7M2496 5574v25.2l15.3-.4c25.9-.7 33.6-6.6 33.7-25.3 0-18.4-6.9-23.3-33.7-24.2l-15.3-.5zm608 0v25h12c28.4 0 38-7.3 36.8-28-1-16.8-9.8-22-37.6-22H3104zm110.8 13.2a885 885 0 0 0-10.4 34.5c.2.2 10 .2 21.8 0l21.5-.2-10.5-34.2a554 554 0 0 0-11.2-34.3c-.3 0-5.4 15.4-11.2 34.2m-409.5 126.3c-18.5 5-28.6 16.8-28.7 33.5-.2 19 9.3 27.9 41.8 39 23.3 7.9 28.3 11.4 30.6 21.5a23 23 0 0 1-2.5 17c-9.3 16.3-42.5 17-62 1.6l-3.9-3.2-5.3 5.8-5.2 5.8 4.1 3.8c16.3 14.9 51.8 18.8 73 8.1a36 36 0 0 0 20.6-32c1.2-22.6-9.5-34-41.8-44-21.1-6.6-29.2-12-31.1-20.3-5.1-22.7 31.6-31.6 55.8-13.5l3.2 2.4 4.8-5c2.6-2.9 5-5.5 5-6 1-2.6-16-12.1-26-14.5a95 95 0 0 0-32.4 0m399.7-.1c-9.2 2.7-26 14.1-26 17.7 0 .5 2.5 2.8 5.6 5.3l5.6 4.3 4.6-4.5c13.5-13 35.6-13.2 44.7-.3 4.3 6.1 4.4 24.2.2 33.4-5.8 12.7-25.6 36-49.4 58.3l-9.3 8.6v13.8h81.7l1.1-6.7c.6-3.6.9-7 .6-7.5s-14.3-.8-31.1-.8h-30.6l17.5-17.2c27-26.7 37-41.3 40.5-58.7 3.8-19.2-4-35.7-20.5-43.4-6.2-2.9-7.6-3.1-18.7-3.4-7.7-.1-13.6.2-16.5 1m109.3.5c-14.3 5.1-22.6 15.8-28 36.1a202 202 0 0 0-1.4 58.6c6.3 32 24.9 48 50.2 43.5q33.1-6.2 36.8-57.7c2.8-40.5-7-69.3-26.8-79a50 50 0 0 0-30.8-1.5m93-.3c-9 2.5-20 9.5-24.3 15.5l-2 2.7 6 4.6 5.8 4.5 3.8-4c5.6-5.7 11-8.6 19-10 18-3 30.4 6.7 30.4 23.7 0 18.6-8.2 31.4-41.2 65.1l-20.8 21.1v13.3h40.4c22.3 0 40.7-.3 41-.7.2-.5.7-3.8 1.1-7.6l.7-6.7h-62l19.2-19.2c21.2-21.2 27.7-29.3 33.6-41.3 12.2-25.3 5-51.1-16.8-59.6a76 76 0 0 0-34-1.4m115.6.4c-25.4 8.3-39.7 42-36 84.3 3.2 34.3 14.6 50.5 38 54 32.3 4.8 56.3-25 48.7-60.5-4-19.3-17.4-30-37.5-30.1a33 33 0 0 0-26.9 10.7l-5.3 5.2.6-7.6c3-34 20.5-50 45.6-41.6 8.4 2.9 8.2 3 12.1-4.1 2.3-4.3 2.3-4.4.4-5.8-8-5.8-28.6-8.2-39.7-4.5M2685 5782v68h80v-14h-62v-48h50v-14h-50v-45h57.8l.7-4.2 1.2-7.6.5-3.2H2685zm186-60.5v7.5h42v121h18v-121h20.4c23.2 0 21 1 22-9.2l.7-5.8H2871zm110 60.4v68.1h20.8c30.2 0 42.7-3.6 54.5-15.4 12.3-12.2 17-27 17-53.1 0-26.6-4.8-41.3-17.2-52.8-12.3-11.3-21.3-13.8-51.8-14.4l-23.3-.5zm338.5-54.3c-8.1 4.2-13.2 12.5-16.1 26.4a233 233 0 0 0-.5 55l1.4 7.5 20.5-41.2 20.6-41.2-2-2.2c-4.8-5.4-17.4-7.7-23.9-4.3m-321.5 54.8v53.6h10c33 0 46.3-15.4 46.4-54 0-28.3-5.9-42.2-21.3-49.8-5.2-2.5-6.7-2.7-20.3-3l-14.8-.4zm332.7 6.5a777 777 0 0 0-19.7 41.4c0 1 1.9 3 4.2 4.4 6.2 4.2 18.7 4.1 24.2 0 10.3-8 14.6-23.4 14.6-53 0-14.9-1.6-32.7-3-32.7-.3 0-9.5 18-20.3 39.9m191.5-11.2c-5 1.7-14 9.7-16.7 14.6-1.7 3.3-1.8 4.3-.7 13.5 2.7 22.8 10.4 32.2 26.7 32.2 17 0 25-10.3 25-32.5 0-16.8-2.9-23.5-12-27.6-5-2.3-16.2-2.4-22.3-.2"/></svg>